<svg xmlns="http://www.w3.org/2000/svg" width="804" height="257" viewBox="0 0 804 257" fill="none"><rect width="804" height="257" fill="white"></rect><path d="M215 90.6V167.4C215 175.1 208.7 181.4 201 181.4C193.3 181.4 187 175.1 187 167.4V90.6C187 82.9 193.3 76.6 201 76.6C208.7 76.6 215 82.9 215 90.6Z" fill="#F6C279"></path><path d="M201.1 76.6C208.8 76.6 215.1 82.9 215.1 90.6C215.1 98.3 208.8 104.6 201.1 104.6C193.4 104.6 187.1 98.3 187.1 90.6C187.1 82.9 193.3 76.6 201.1 76.6Z" fill="#F09A1F"></path><path d="M158.4 97.2999L116.9 172.6C113.2 179.4 104.7 181.8 97.9 178.1C91.1 174.4 88.7 165.9 92.4 159.1L134 83.8999C137.7 77.0999 146.2 74.6999 153 78.3999C159.7 82.0999 162.2 90.5999 158.4 97.2999Z" fill="#EF8B7D"></path><path d="M91.8 76.6H146.2C153.9 76.6 160.2 82.9 160.2 90.6C160.2 98.3 153.9 104.6 146.2 104.6H91.8C84.1 104.6 77.8 98.3 77.8 90.6C77.8 82.9 84.1 76.6 91.8 76.6Z" fill="#E53E27"></path><path d="M146.2 76.6C153.9 76.6 160.2 82.9 160.2 90.6C160.2 98.3 153.9 104.6 146.2 104.6C138.5 104.6 132.2 98.3 132.2 90.6C132.2 82.9 138.4 76.6 146.2 76.6Z" fill="#AC1C24"></path><path d="M91 76.6C98.7 76.6 105 82.9 105 90.6C105 98.3 98.7 104.6 91 104.6C83.3 104.6 77 98.3 77 90.6C77 82.9 83.3 76.6 91 76.6Z" fill="#9E1E62"></path><path d="M316.7 97.2999L274.3 174C270.6 180.8 262.1 183.2 255.3 179.5C248.5 175.8 246.1 167.3 249.8 160.5L292.2 83.7999C295.9 76.9999 304.4 74.5999 311.2 78.2999C318 82.0999 320.4 90.5999 316.7 97.2999Z" fill="#89D08E"></path><path d="M250 76.6H304.4C312.1 76.6 318.4 82.9 318.4 90.6C318.4 98.3 312.1 104.6 304.4 104.6H250C242.3 104.6 236 98.3 236 90.6C236 82.9 242.3 76.6 250 76.6Z" fill="#3BB042"></path><path d="M304.4 76.6C312.1 76.6 318.4 82.9 318.4 90.6C318.4 98.3 312.1 104.6 304.4 104.6C296.7 104.6 290.4 98.3 290.4 90.6C290.5 82.9 296.7 76.6 304.4 76.6Z" fill="#226432"></path><path fill-rule="evenodd" clip-rule="evenodd" d="M460.9 110.2C460.9 105.4 457 101.5 452.2 101.5C447.4 101.5 443.5 105.4 443.5 110.2C443.5 115 447.4 118.9 452.2 118.9C457 118.9 460.9 115 460.9 110.2ZM357.4 179.5V168.3H336.8L330.8 179.5H306.6L348.6 102.2H377.1V179.5H357.4ZM357.4 121.9L341 152.6H357.4V121.9ZM387.8 179.5V102.2H405.1V179.5H387.8ZM415.6 102.2V179.5H432.9V102.2H415.6ZM443.5 179.5V124H460.8V179.5H443.5ZM514.3 173.2V179.4H531.6V121.4H514.3V127.6H514.1C510.8 122.3 504.2 119.5 497.1 119.5C480.5 119.5 468.1 133.3 468.1 150.4C468.1 167.5 480 181.4 497.1 181.4C514.2 181.4 511.6 178.3 514.1 173.2H514.3ZM499.6 135.8C507.7 135.8 514.3 142.4 514.3 150.5C514.3 158.6 507.9 165.3 499.8 165.3C491.7 165.3 485.4 158.7 485.4 150.7C485.4 142.7 491.7 135.8 499.6 135.8ZM577.9 179.5V147.3C577.9 139.5 575.2 135.8 568.8 135.8C562.4 135.8 558.9 139.7 558.9 147.5V179.5H541.6V121.5H557.8V127.7H558C561.7 121.7 566.8 119.6 573.8 119.6C584.2 119.6 595.3 125.4 595.3 142.6V179.6H577.9V179.5ZM631.6 135.8C637.5 135.8 642 138.5 644.5 143.9H662C658.8 129.2 646.3 119.6 631.1 119.6C615.9 119.6 600.7 133.1 600.7 150.4C600.7 167.7 614.3 181.4 631.4 181.4C648.5 181.4 658.7 172 662.1 157.5H644.5C641.9 162.5 637.8 165.2 632 165.2C626.2 165.2 618.2 159 618.2 150.5C618.2 142 623.7 135.8 631.6 135.8ZM683.1 155.8C684 162.4 689.6 166.8 696.7 166.8C703.8 166.8 704.4 165 707.2 161.4H725C719.5 174 708.9 181.4 696.7 181.4C684.5 181.4 666 167.9 666 150.7C666 133.5 679.4 119.6 696.4 119.6C713.4 119.6 727 133.3 727 151.2C727 169.1 727 154.2 726.6 155.8H683.1ZM709.6 144.1C708.2 138.1 703 134.2 696.3 134.2C689.6 134.2 684.6 138 683.2 144.1H709.6Z" fill="#203632"></path><path d="M154.2 124.6H173.2C177.6 124.6 181.2 128.2 181.2 132.6C181.2 137 177.6 140.6 173.2 140.6H154.2C149.8 140.6 146.2 137 146.2 132.6C146.2 128.2 149.8 124.6 154.2 124.6Z" fill="#A1B5BE"></path><path d="M229 124.6H248C252.4 124.6 256 128.2 256 132.6C256 137 252.4 140.6 248 140.6H229C224.6 140.6 221 137 221 132.6C221 128.2 224.6 124.6 229 124.6Z" fill="#A1B5BE"></path></svg>